<svg width="31" height="27" viewBox="0 0 31 27" fill="none" xmlns="http://www.w3.org/2000/svg">
<path d="M19.4868 8.27827L23.887 4.41507M26.4014 2.20752L23.887 4.41507L26.4014 2.20752ZM14.3196 12.8148C14.9688 13.3771 15.4848 14.0466 15.838 14.7848C16.1913 15.5229 16.3747 16.3151 16.3777 17.1158C16.3808 17.9164 16.2034 18.7097 15.8558 19.4499C15.5083 20.1901 14.9974 20.8626 14.3525 21.4288C13.7077 21.9949 12.9416 22.4435 12.0985 22.7486C11.2554 23.0538 10.3519 23.2095 9.43995 23.2068C8.52801 23.2042 7.62568 23.0431 6.78492 22.733C5.94416 22.4229 5.18157 21.9699 4.54106 21.3999C3.2815 20.255 2.58454 18.7215 2.6003 17.1298C2.61605 15.538 3.34326 14.0154 4.62529 12.8898C5.90732 11.7643 7.64161 11.1258 9.45461 11.112C11.2676 11.0982 13.0143 11.71 14.3184 12.8159L14.3196 12.8148ZM14.3196 12.8148L19.4868 8.27827L14.3196 12.8148ZM19.4868 8.27827L23.2584 11.5896L27.6586 7.72639L23.887 4.41507L19.4868 8.27827Z" stroke="black" stroke-width="2" stroke-linecap="round" stroke-linejoin="round"/>
</svg>
